<?xml version="1.0" standalone="no"?><!DOCTYPE svg PUBLIC "-//W3C//DTD SVG 1.1//EN" "http://www.w3.org/Graphics/SVG/1.1/DTD/svg11.dtd"><svg t="1506501736802" class="icon" style="" viewBox="0 0 1024 1024" version="1.1" xmlns="http://www.w3.org/2000/svg" p-id="5272" xmlns:xlink="http://www.w3.org/1999/xlink" width="24" height="24"><defs><style type="text/css"></style></defs><path d="M953.23 311.689c-23.272-55.02-56.584-104.429-99.01-146.855-42.426-42.426-91.835-75.738-146.854-99.009-56.971-24.097-117.48-36.314-179.846-36.314S404.646 41.728 347.675 65.825c-55.019 23.271-104.428 56.583-146.854 99.01-42.427 42.425-75.738 91.835-99.01 146.854-24.096 56.97-36.313 117.478-36.313 179.845 0 120.28 45.975 234.182 129.456 320.727l22.095-21.314c-77.933-80.79-120.852-187.125-120.852-299.413 0-58.235 11.403-114.72 33.89-167.886 21.724-51.36 52.826-97.49 92.442-137.105 39.617-39.617 85.746-70.72 137.106-92.443C412.8 71.613 469.285 60.21 527.52 60.21c58.236 0 114.72 11.403 167.886 33.89 51.359 21.724 97.49 52.826 137.106 92.443s70.718 85.745 92.442 137.105c22.487 53.166 33.889 109.65 33.889 167.886 0 58.235-11.403 114.72-33.889 167.886-21.724 51.358-52.826 97.489-92.442 137.105-39.618 39.616-85.747 70.719-137.106 92.443-53.166 22.487-109.65 33.888-167.886 33.888-52.937 0-104.626-9.473-153.63-28.159l-10.938 28.684c52.51 20.021 107.88 30.174 164.568 30.174 62.366 0 122.875-12.218 179.846-36.314 55.019-23.271 104.428-56.583 146.854-99.01s75.738-91.835 99.01-146.854c24.096-56.97 36.313-117.48 36.313-179.845s-12.217-122.873-36.314-179.843zM427.844 696.628V298.393h-62.579c-26.549 46.787-73.957 84.091-142.226 111.884v68.27c46.757-15.171 88.476-37.276 125.16-66.373v284.454h79.645z m227.564-51.201c-37.928 0-61.336-21.482-70.164-64.477l-79.649 18.963c18.964 68.27 68.892 102.404 149.813 102.404 94.818-2.548 143.47-47.41 146.019-134.642-3.794-79.647-46.165-121.367-127.056-125.16-30.34 0-56.892 8.238-79.646 24.653l9.482-98.61h176.36v-66.373h-244.63l-15.17 223.77 66.371 1.897c13.897-17.689 36.032-27.172 66.373-28.446 44.238 1.274 66.995 25.928 68.27 73.958-2.548 44.269-24.654 68.27-66.373 72.063z" fill="#8a8a8a" p-id="5273"></path></svg>