<?xml version="1.0" standalone="no"?><!DOCTYPE svg PUBLIC "-//W3C//DTD SVG 1.1//EN" "http://www.w3.org/Graphics/SVG/1.1/DTD/svg11.dtd"><svg t="1506561936450" class="icon" style="" viewBox="0 0 1024 1024" version="1.1" xmlns="http://www.w3.org/2000/svg" p-id="11026" xmlns:xlink="http://www.w3.org/1999/xlink" width="24" height="24"><defs><style type="text/css"></style></defs><path d="M511.999996 311.65244l111.303859 0c24.589948 0 44.521339-19.932413 44.521339-44.521339 0-24.589948-19.932413-44.521339-44.521339-44.521339L489.738816 222.609761c-73.765759 0-133.56504 59.799281-133.56504 133.56504l0 400.695119c0 24.589948 19.932413 44.521339 44.521339 44.521339 24.589948 0 44.521339-19.932413 44.521339-44.521339L445.216455 645.56504c0-36.884411 29.898108-66.78252 66.78252-66.78252l111.303859 0c24.589948 0 44.521339-19.932413 44.521339-44.521339 0-24.589948-19.932413-44.521339-44.521339-44.521339L511.999996 489.739841c-36.884411 0-66.78252-29.89913-66.78252-66.78252l0-44.521339C445.217476 341.550549 475.115585 311.65244 511.999996 311.65244z" p-id="11027" fill="#ffffff"></path><path d="M511.999996 0c-282.768572 0-512 229.230407-512 512s229.231428 512 512 512 512-229.230407 512-512S794.768568 0 511.999996 0zM511.999996 934.9563c-233.592761 0-422.9563-189.363539-422.9563-422.9563S278.407235 89.0437 511.999996 89.0437s422.9563 189.36456 422.9563 422.9563S745.591735 934.9563 511.999996 934.9563z" p-id="11028" fill="#ffffff"></path></svg>