<?xml version="1.0" standalone="no"?><!DOCTYPE svg PUBLIC "-//W3C//DTD SVG 1.1//EN" "http://www.w3.org/Graphics/SVG/1.1/DTD/svg11.dtd"><svg t="1506501786240" class="icon" style="" viewBox="0 0 1024 1024" version="1.1" xmlns="http://www.w3.org/2000/svg" p-id="6839" xmlns:xlink="http://www.w3.org/1999/xlink" width="24" height="24"><defs><style type="text/css"></style></defs><path d="M857.969 240.77h-30.322c15.376-26.071 22.124-50.939 19.968-74.004-1.789-19.305-10.939-46.915-44.465-68.919-27.797-18.286-63.543-22.771-103.202-12.864-64.311 16.147-140.426 71.659-190.471 138.745-50.076-67.085-126.129-122.599-190.439-138.745-39.691-9.972-75.468-5.455-103.261 12.864-33.498 22.004-42.65 49.614-44.437 68.919-2.156 23.067 4.53 47.933 19.968 74.004h-30.322c-45.913 0-83.278 37.393-83.278 83.341v107.345c0 36.347 23.973 68.47 58.657 79.258-3.296 9.121-5.022 18.549-5.022 28.103v322.051c0 45.916 37.408 83.325 83.325 83.325h589.716c45.914 0 83.263-37.408 83.263-83.325v-322.052c0-0.015 0-0.033 0-0.050 0-10.079-1.819-19.732-5.145-28.652 34.818-10.281 58.734-42.405 58.734-78.66v-107.316c-0.001-45.945-37.349-83.369-83.265-83.369M804.38 884.844h-265.26v-370.032h265.26c13.22 0 23.941 10.784 23.941 24.005v322.051c-0.001 13.221-10.722 23.975-23.942 23.975M571.786 240.77c42.187-48.66 97.559-86.899 142.522-98.179 23.357-5.854 42.462-4.252 56.299 4.87 14.701 9.659 17.316 18.271 17.904 24.775 2.339 23.85-23.235 56.005-35.315 68.533h-181.409zM881.881 324.14v107.316c0 13.22-10.691 23.972-23.913 23.972h-318.847v-155.278h318.847c13.219 0 23.913 10.771 23.913 23.989M479.801 514.812v370.032h-265.136c-13.251 0-23.977-10.755-23.977-23.975v-322.051c0-13.22 10.724-24.005 23.977-24.005h265.136zM230.444 172.236c0.583-6.505 3.235-15.118 17.874-24.775 13.741-9.123 32.847-10.803 56.331-4.87 44.713 11.216 100.026 49.459 142.304 98.179h-181.258c-10.816-10.955-37.626-44.112-35.252-68.533M137.009 324.14c0-13.217 10.724-23.989 23.973-23.989h318.817v155.278h-318.817c-13.249 0-23.973-10.752-23.973-23.972v-107.316z" p-id="6840" fill="#ff6700"></path></svg>