<?xml version="1.0" standalone="no"?><!DOCTYPE svg PUBLIC "-//W3C//DTD SVG 1.1//EN" "http://www.w3.org/Graphics/SVG/1.1/DTD/svg11.dtd"><svg t="1506510336648" class="icon" style="" viewBox="0 0 1024 1024" version="1.1" xmlns="http://www.w3.org/2000/svg" p-id="4221" xmlns:xlink="http://www.w3.org/1999/xlink" width="12" height="12"><defs><style type="text/css"></style></defs><path d="M788.044522 248.876254 235.935012 248.876254c-32.466436 0-64.952314 33.58184-64.952314 67.163679L170.982698 685.482123c0 33.580816 32.485879 67.162656 64.952314 67.162656l97.436146 0 0 134.348847 129.899512-134.348847 324.773851 0c32.485879 0 64.971757-33.580816 64.971757-67.162656L853.016279 316.039933C853.017302 282.458093 820.531424 248.876254 788.044522 248.876254zM349.614098 551.133276c-26.89965 0-48.728818-22.559808-48.728818-50.362015 0-27.823696 21.829168-50.383504 48.728818-50.383504s48.707328 22.559808 48.707328 50.383504C398.321426 528.573467 376.513748 551.133276 349.614098 551.133276zM512.000512 551.133276c-26.89965 0-48.728818-22.559808-48.728818-50.362015 0-27.823696 21.829168-50.383504 48.728818-50.383504s48.709375 22.559808 48.709375 50.383504C560.708863 528.573467 538.900162 551.133276 512.000512 551.133276zM674.387949 551.133276c-26.89965 0-48.707328-22.559808-48.707328-50.362015 0-27.823696 21.807678-50.383504 48.707328-50.383504s48.707328 22.559808 48.707328 50.383504C723.095277 528.573467 701.287599 551.133276 674.387949 551.133276z" p-id="4222" fill="#ff6700"></path></svg>