<?xml version="1.0" standalone="no"?><!DOCTYPE svg PUBLIC "-//W3C//DTD SVG 1.1//EN" "http://www.w3.org/Graphics/SVG/1.1/DTD/svg11.dtd"><svg t="1506562034678" class="icon" style="" viewBox="0 0 1024 1024" version="1.1" xmlns="http://www.w3.org/2000/svg" p-id="11335" xmlns:xlink="http://www.w3.org/1999/xlink" width="24" height="24"><defs><style type="text/css"></style></defs><path d="M837.824 1016H170.048s-34.24-24.768-56.128-60.736c-11.648-26.56-13.888-54.272-13.888-54.272V84.288l34.816-41.216 26.304-31.04h512.064l250.752 250.752V924.8s0.192 27.264-20.032 63.232c-32 31.488-66.112 27.968-66.112 27.968z m-631.872-64h604.224l49.792-52.736V289.28l-213.248-213.248H190.848l-26.816 31.68v775.296l41.92 68.992z" p-id="11336" fill="#ffffff"></path><path d="M252.032 156.032h64v216h-64zM364.736 156.032h64v216h-64zM480 156.032h64v216h-64zM256 596.032h164.032V480H284.032L256 512zM791.232 763.584l-175.552 0.832 0.64 116.032 136-0.768 27.776-32.128zM615.68 480v116.032h180.352V513.984L752 480zM428.736 878.592l-1.856-116.032-180.288 2.88 1.344 81.92 44.48 33.344zM254.784 618.24h166.4v107.52h-166.4zM456 480h128v400.448h-128zM615.68 616h180.288v112H615.68z" p-id="11337" fill="#ffffff"></path></svg>