<?xml version="1.0" standalone="no"?><!DOCTYPE svg PUBLIC "-//W3C//DTD SVG 1.1//EN" "http://www.w3.org/Graphics/SVG/1.1/DTD/svg11.dtd"><svg t="1506050760415" class="icon" style="" viewBox="0 0 1024 1024" version="1.1" xmlns="http://www.w3.org/2000/svg" p-id="4013" xmlns:xlink="http://www.w3.org/1999/xlink" width="200" height="200"><defs><style type="text/css"></style></defs><path d="M992 512a480 480 0 1 0-960 0 480 480 0 0 0 960 0z m-896 0a416 416 0 1 1 832 0 416 416 0 0 1-832 0z" fill="#FF6237" p-id="4014"></path><path d="M672 544a32 32 0 1 0 0-64h-384a32 32 0 0 0 0 64h384z" fill="#FF6237" p-id="4015"></path><path d="M682.048 527.488l-0.896-45.312-192.192 199.68a32 32 0 0 0 46.08 44.352l192.192-199.68a32 32 0 0 0-0.896-45.248L534.144 296.96a32 32 0 0 0-44.288 46.08l192.192 184.448z" fill="#FF6237" p-id="4016"></path></svg>