<?xml version="1.0" standalone="no"?><!DOCTYPE svg PUBLIC "-//W3C//DTD SVG 1.1//EN" "http://www.w3.org/Graphics/SVG/1.1/DTD/svg11.dtd"><svg t="1506562158068" class="icon" style="" viewBox="0 0 1041 1024" version="1.1" xmlns="http://www.w3.org/2000/svg" p-id="12128" xmlns:xlink="http://www.w3.org/1999/xlink" width="24.3984375" height="24"><defs><style type="text/css"></style></defs><path d="M531.072 1006.016c-250.048 0-453.376-203.456-453.376-453.44H13.376l96.192-128.448 85.184 128.448h-56.64a393.472 393.472 0 0 0 392.96 392.96c174.336 0 321.664-100.352 372.288-267.072 0 0 22.656-39.168 44.608-22.464 22.336 17.024 17.088 41.984 17.088 41.984-58.432 192.32-232.896 308.032-433.984 308.032z" p-id="12129" fill="#bfbfbf"></path><path d="M640.448 234.688H376l-48.192 80.448v433.472l75.584 67.072h210.432l76.8-67.072V305.408l-50.176-70.72z m-93.76 513.92H478.976v-19.968h67.712v19.968z m67.136-95.488H403.392V420.928h210.432v232.192z m0-327.744H403.392v-19.968h210.432v19.968z" p-id="12130" fill="#bfbfbf"></path><path d="M523.584 57.344a453.952 453.952 0 0 1 453.44 453.44h64.256l-96.256 128.512-85.12-128.512h56.768a393.472 393.472 0 0 0-393.088-392.96c-174.336 0-320.96 98.24-371.648 264.896 0 0-11.968 27.328-41.92 15.36s-13.632-39.936-13.632-39.936c58.496-192.256 226.048-300.8 427.2-300.8z" p-id="12131" fill="#bfbfbf"></path></svg>