<?xml version="1.0" standalone="no"?><!DOCTYPE svg PUBLIC "-//W3C//DTD SVG 1.1//EN" "http://www.w3.org/Graphics/SVG/1.1/DTD/svg11.dtd"><svg t="1506501532708" class="icon" style="" viewBox="0 0 1024 1024" version="1.1" xmlns="http://www.w3.org/2000/svg" p-id="3488" xmlns:xlink="http://www.w3.org/1999/xlink" width="24" height="24"><defs><style type="text/css"></style></defs><path d="M794.058858 896.928387a114.693122 114.693122 0 0 1-81.698041-33.84877l-187.939642-187.896958a32.013339 32.013339 0 1 1 45.288204-45.288203l187.939641 187.896957c19.506794 19.506794 53.398249 19.506794 72.86236 0a51.221342 51.221342 0 0 0 15.110296-36.409837c0-13.787078-5.335556-26.720467-15.110296-36.452522l-187.939642-187.939642a32.013339 32.013339 0 1 1 45.288204-45.288203l187.939641 187.939641c21.811755 21.811755 33.84877 50.794498 33.84877 81.698041 0 30.860859-12.037015 59.843602-33.84877 81.655357a114.522384 114.522384 0 0 1-81.740725 33.934139z" p-id="3489" fill="#ff6700"></path><path d="M412.28912 720.983076a298.364318 298.364318 0 0 1-210.946561-86.692121 297.425261 297.425261 0 0 1-66.715798-317.871113 32.013339 32.013339 0 0 1 52.459191-11.055273l144.060025 144.060025a10.671113 10.671113 0 0 0 15.110296 0l90.576407-90.533723a10.585744 10.585744 0 0 0 0-15.067611L292.729971 199.72055a32.013339 32.013339 0 0 1 11.012588-52.459191 297.297207 297.297207 0 0 1 317.871113 66.715798 294.693456 294.693456 0 0 1 86.990913 215.684535c-0.341476 17.671363-14.982243 32.995081-32.610921 31.415757a32.013339 32.013339 0 0 1-31.415757-32.610921 231.221676 231.221676 0 0 0-68.252438-169.243852 233.227845 233.227845 0 0 0-199.208337-65.648687l104.918383 104.918383c14.128554 14.043185 21.897124 32.867028 21.897124 52.800667 0 19.933639-7.76857 38.672113-21.85444 52.800667L391.501792 494.712797a74.825844 74.825844 0 0 1-105.644018 0L180.939391 389.837099A233.313214 233.313214 0 0 0 246.588078 589.045436a234.679116 234.679116 0 0 0 275.912297 40.208753 32.056023 32.056023 0 0 1 30.519383 56.300792 295.205669 295.205669 0 0 1-140.730638 35.428095z" p-id="3490" fill="#ff6700"></path></svg>