<?xml version="1.0" standalone="no"?><!DOCTYPE svg PUBLIC "-//W3C//DTD SVG 1.1//EN" "http://www.w3.org/Graphics/SVG/1.1/DTD/svg11.dtd"><svg t="1506501679439" class="icon" style="" viewBox="0 0 1024 1024" version="1.1" xmlns="http://www.w3.org/2000/svg" p-id="4463" xmlns:xlink="http://www.w3.org/1999/xlink" width="24" height="24"><defs><style type="text/css"></style></defs><path d="M968.392706 324.274228c0 0-0.074568 0.208588-0.212619 0.590495l-0.085652-0.590495-79.60299 165.105894 84.442834-9.716972c6.079279 70.344509-3.855349 141.684596-29.920777 209.242894-22.824757 59.180521-56.559569 112.108443-100.248155 157.318613-42.21134 43.674479-91.8996 78.359524-147.689308 103.083741-55.789708 24.730263-114.858377 38.249178-175.561489 40.19096-62.845421 2.009296-124.714408-8.547066-183.890898-31.372831-59.180521-22.831811-112.108443-56.559569-157.318613-100.255208-43.673471-42.21134-78.359524-91.8996-103.089787-147.687293-24.724217-55.789708-38.249178-114.854347-40.19096-175.562497-2.004258-62.840382 8.553112-124.712393 31.377869-183.888883 22.831811-59.17649 56.559569-112.109451 100.255208-157.31962 42.205294-43.673471 91.8996-78.359524 147.689308-103.083741 55.782654-24.730263 114.852331-38.24817 175.561489-40.189952 62.840382-2.010304 124.712393 8.546058 183.888883 31.377869 53.794519 20.751978 102.605097 50.640509 145.077425 88.83628l22.358205-24.858237c-45.50844-40.929583-97.793468-72.956392-155.400007-95.175539C622.455202 25.867561 556.17967 14.565522 488.840036 16.719923 423.807969 18.798748 360.541342 33.274951 300.795518 59.760577 241.051709 86.239149 187.831562 123.388958 142.615347 170.178148 95.792903 218.622941 59.654796 275.319553 35.206681 338.698032c-24.448115 63.372433-35.749146 129.655019-33.595753 196.993645 2.074795 65.032067 16.557043 128.298694 43.041661 188.044518 26.47958 59.743809 63.627373 112.963956 110.417571 158.180171 48.443786 46.822443 105.142413 82.954504 168.520892 107.408665 63.371425 24.448115 129.653004 35.755192 196.987599 33.600791 65.032067-2.080841 128.302725-16.561074 188.048549-43.0467 59.745824-26.47958 112.965971-63.627373 158.182187-110.416563 46.815389-48.443786 82.953496-105.142413 107.401612-168.520892C1021.36295 578.717215 1019.300247 444.94586 968.392706 324.274228L968.392706 324.274228zM968.392706 324.274228" p-id="4464" fill="#8a8a8a"></path><path d="M497.821408 742.004263c11.259716-129.63285 62.68117-253.654988 154.304668-372.02913l0-65.526833L330.828146 304.4483l0 73.982201 224.06372 0c-84.54864 114.145954-135.280847 235.359713-152.19259 363.572754L497.821408 742.003256 497.821408 742.004263zM497.821408 742.004263" p-id="4465" fill="#8a8a8a"></path></svg>