<?xml version="1.0" standalone="no"?><!DOCTYPE svg PUBLIC "-//W3C//DTD SVG 1.1//EN" "http://www.w3.org/Graphics/SVG/1.1/DTD/svg11.dtd"><svg t="1506561193821" class="icon" style="" viewBox="0 0 1024 1024" version="1.1" xmlns="http://www.w3.org/2000/svg" p-id="1939" xmlns:xlink="http://www.w3.org/1999/xlink" width="24" height="24"><defs><style type="text/css"></style></defs><path d="M392.533333 661.333333 320 661.333333 320 256l264.533333 0c0 0 0 8.533333 0 8.533333l21.333333 0L605.866667 196.266667c0-12.8-4.266667-21.333333-17.066667-21.333333L315.733333 174.933333C302.933333 174.933333 298.666667 183.466667 298.666667 196.266667l0 537.6c0 12.8 4.266667 21.333333 17.066667 21.333333l76.8 0L392.533333 661.333333z" p-id="1940" fill="#cdcdcd"></path><path d="M725.333333 302.933333l-273.066667 0c-12.8 0-17.066667 12.8-17.066667 21.333333l0 537.6c0 12.8 4.266667 21.333333 17.066667 21.333333L725.333333 883.2c12.8 0 17.066667-12.8 17.066667-21.333333L742.4 324.266667C742.4 315.733333 733.866667 302.933333 725.333333 302.933333zM618.666667 857.6 554.666667 857.6c-12.8 0-21.333333-8.533333-21.333333-21.333333s8.533333-21.333333 21.333333-21.333333l64 0c12.8 0 21.333333 8.533333 21.333333 21.333333S631.466667 857.6 618.666667 857.6zM721.066667 793.6l-264.533333 0L456.533333 384l264.533333 0L721.066667 793.6z" p-id="1941" fill="#cdcdcd"></path></svg>